<svg xmlns="http://www.w3.org/2000/svg" className="ionicon" viewBox="0 0 512 512">
	<style type="text/css">
		.st0{ display: none; } .st1{ display: inline; }
	</style>
	<g className="st0">
		<path fill="#FF375F" className="st1" d="M408.9,121.6l-111.3-63c-25.6-14.2-56.7-14.2-82.3,0L104,121.5C78,136.4,61.8,164,61.8,194v124.8
c0,30,16.2,57.7,42.3,72.4l111.3,62.9c25.5,14.5,56.8,14.5,82.3,0L409,391.2c26.1-14.8,42.2-42.4,42.3-72.4V194
C451.2,164,435,136.4,408.9,121.6z M437.3,318.8c0,25-13.5,48-35.2,60.3L290.8,442c-21.3,11.8-47.3,11.8-68.6,0L111,379.1
c-21.7-12.3-35.2-35.3-35.2-60.3V194c0-25,13.5-48,35.2-60.3l111.3-63c21.3-12,47.3-12,68.6,0l111.3,62.9
c21.7,12.3,35.2,35.4,35.2,60.3v124.9H437.3z"/>
		<path fill="#FF375F" className="st1" d="M391.8,151.8l-111.3-63c-14.9-8.4-33.1-8.4-48.1,0l-111.3,63c-15.2,8.6-24.6,24.7-24.6,42.2v124.8
c0,17.5,9.4,33.6,24.6,42.2l111.3,62.9c14.9,8.4,33.1,8.4,48.1,0L391.8,361c15.2-8.6,24.6-24.7,24.6-42.2V194
C416.4,176.5,407,160.4,391.8,151.8z M402.5,318.8c0,12.5-6.7,24-17.6,30.1l-111.3,62.9c-10.7,6-23.7,6-34.4,0l-111.3-62.9
c-10.8-6.1-17.6-17.6-17.6-30.1V194c0-12.5,6.7-24,17.6-30.1l111.3-63c10.7-6,23.7-6,34.4,0l111.3,63c10.8,6.1,17.6,17.6,17.6,30.1
L402.5,318.8L402.5,318.8z"/>
		<path fill="#FF375F" className="st1" d="M370.6,248.2c0-8.5-3.1-16.7-8.6-23.1c0.3-1.8,0.4-3.6,0.4-5.5c0-16.5-10.4-31.3-25.9-37
c0.8-2.5,1.1-5.2,1.1-7.8c-0.2-15.3-12.7-27.5-28-27.3c-0.2,0-0.4,0-0.7,0c-8.6-15.3-27.9-20.8-43.3-12.3c-3.5,2-6.7,4.6-9.2,7.8
c-11.1-13.7-31.1-15.8-44.7-4.7c-3.2,2.6-5.8,5.7-7.8,9.2c-15.1-0.7-27.9,10.9-28.6,26c-0.1,3.1,0.2,6.2,1.1,9.1
c-15.5,5.7-25.9,20.5-25.9,37.1c0,1.8,0.1,3.7,0.4,5.5c-9.8,11.3-11.4,27.6-4,40.6c-5.7,6.4-8.8,14.7-8.8,23.2
c0.1,13.8,8.1,26.4,20.7,32.2c1,15.8,11.7,29.3,26.9,33.8c7.5,20.8,30.4,31.7,51.3,24.2c7.9-2.8,14.7-8,19.4-14.9
c12.6,18.2,37.6,22.7,55.8,10.1c6.9-4.8,12.1-11.6,14.9-19.4c15.2-4.5,25.9-18,26.9-33.8c12.5-5.8,20.6-18.3,20.7-32.2
c0-8.6-3.1-16.8-8.8-23.3C369,260.4,370.6,254.4,370.6,248.2z M345.2,309.7c-3.1,0.9-5.2,3.9-5,7.1c0.9,12.5-7.8,23.6-20.1,25.7
c-2.6,0.6-4.6,2.6-5.2,5.2c-3.4,14-17.5,22.6-31.5,19.2c-11.5-2.8-19.7-13-19.9-24.9c0-3.8-3.1-7-7-7s-7,3.1-7,7
c-0.2,14.4-12.1,25.9-26.4,25.7c-11.9-0.2-22.1-8.4-24.9-19.9c-0.6-2.6-2.6-4.6-5.2-5.2c-12.3-2.2-21-13.3-20.1-25.7
c0.2-3.3-1.9-6.2-5-7.1c-9.2-2.7-15.6-11.1-15.6-20.7c0-6.6,3-12.8,8.3-16.8c3-2.4,3.6-6.7,1.2-9.8c-0.1-0.1-0.1-0.2-0.2-0.3
c-3.4-3.9-5.2-8.8-5.2-13.9c0-6,2.5-11.7,6.9-15.7c1.9-1.7,2.7-4.4,2.1-6.8c-0.5-2-0.7-4-0.7-6c0.1-13.1,9.9-24,22.9-25.5
c3.8-0.4,6.6-3.9,6.1-7.7c-0.1-1.3-0.7-2.5-1.5-3.5c-1.8-2.3-2.8-5.2-2.8-8.1c0.1-7.5,6.2-13.5,13.8-13.4c1.2,0,2.3,0.2,3.5,0.5
c3.6,0.9,7.2-1.1,8.3-4.6c2.4-7.3,9.2-12.2,16.9-12.2c9.7-0.1,17.7,7.8,17.8,17.5c0,3.8,3.1,7,7,7s7-3.1,7-7
c0.1-9.7,8-17.6,17.8-17.5c7.7,0,14.5,4.9,16.9,12.2c1.1,3.5,4.8,5.5,8.3,4.6c7.2-2,14.7,2.2,16.7,9.5c0.3,1.1,0.5,2.3,0.5,3.5
c0,3-1,5.8-2.8,8.1c-2.4,3-1.9,7.4,1.1,9.8c1,0.8,2.2,1.3,3.5,1.5c13,1.4,22.8,12.4,22.9,25.5c0,2-0.2,4-0.7,6
c-0.6,2.5,0.2,5.1,2.1,6.8c4.4,4,6.9,9.7,6.9,15.7c0,5.1-1.8,10.1-5.2,13.9c-2.5,2.9-2.2,7.3,0.7,9.8c0.1,0.1,0.2,0.2,0.3,0.2
c5.2,4,8.3,10.2,8.3,16.8C360.7,298.6,354.4,307,345.2,309.7z"/>
		<path fill="#FF375F" className="st1" d="M256.5,186.9c-3.8,0-7,3.1-7,7V312c0,3.8,3.1,7,7,7s7-3.1,7-7V193.8C263.5,190,260.3,186.9,256.5,186.9z" />
		<path fill="#FF375F" className="st1" d="M200.9,291.2c-3.8,0-7,3.1-7,7s3.1,7,7,7c3.8,0,7,3.1,7,7s3.1,7,7,7s7-3.1,7-7
C221.7,300.5,212.4,291.2,200.9,291.2z"/>
		<path fill="#FF375F" className="st1" d="M214.8,200.8c-3.8,0-7,3.1-7,7c0,3.8,3.1,7,7,7s7,3.1,7,7c0,3.8,3.1,7,7,7s7-3.1,7-7
C235.6,210.1,226.3,200.8,214.8,200.8z"/>
		<path fill="#FF375F" className="st1" d="M214.8,242.5c-11.5,0-20.9,9.3-20.9,20.9c0,3.8,3.1,7,7,7c3.8,0,7-3.1,7-7s3.1-7,7-7s7-3.1,7-7
C221.7,245.6,218.6,242.5,214.8,242.5z"/>
		<path fill="#FF375F" className="st1" d="M312.1,291.2c-11.5,0-20.9,9.3-20.9,20.9c0,3.8,3.1,7,7,7s7-3.1,7-7s3.1-7,7-7s7-3.1,7-7
S316,291.2,312.1,291.2z"/>
		<path fill="#FF375F" className="st1" d="M298.2,214.7c3.8,0,7-3.1,7-7c0-3.8-3.1-7-7-7c-11.5,0-20.9,9.3-20.9,20.9c0,3.8,3.1,7,7,7s7-3.1,7-7
C291.3,217.8,294.4,214.7,298.2,214.7z"/>
		<path fill="#FF375F" className="st1" d="M298.2,242.5c-3.8,0-7,3.1-7,7c0,3.8,3.1,7,7,7s7,3.1,7,7s3.1,7,7,7s7-3.1,7-7
C319.1,251.8,309.7,242.5,298.2,242.5z"/>
	</g>
	<g>
		<path fill="#FF375F" d="M383.1,277.4c-4.1-3.1-4.8-8.9-1.6-12.9c0.1-0.1,0.2-0.2,0.2-0.4c4.4-5,6.9-11.6,6.8-18.3c0-7.9-3.3-15.4-9.1-20.7
c-2.5-2.2-3.6-5.8-2.7-9c0.6-2.6,1-5.3,1-7.9c-0.1-17.2-13-31.6-30.1-33.6c-5-0.6-8.6-5.2-8-10.2c0.2-1.7,0.9-3.3,2-4.7
c2.5-3.1,3.7-6.9,3.7-10.7c-0.1-9.8-8.2-17.8-18.1-17.7c-1.6,0-3.1,0.2-4.6,0.6c-4.7,1.2-9.5-1.5-10.9-6c-3.2-9.6-12.2-16-22.3-16
c-12.8-0.1-23.4,10.2-23.4,23.1c0,5-4.1,9.1-9.1,9.1c-5,0-9.1-4.1-9.1-9.1c-0.1-12.8-10.6-23.1-23.4-23.1
c-10.1,0-19.1,6.5-22.3,16.1c-1.5,4.6-6.3,7.3-10.9,6c-9.6-2.6-19.4,3-22,12.5c-0.4,1.5-0.6,3.1-0.6,4.6c0,3.9,1.4,7.6,3.7,10.7
c3.2,3.9,2.5,9.7-1.5,12.9c-1.4,1.1-3,1.7-4.7,2c-17.1,1.8-30.1,16.4-30.1,33.6c0,2.7,0.4,5.3,1,7.9c0.9,3.3-0.2,6.8-2.7,9
c-5.8,5.3-9.1,12.8-9.1,20.7c0,6.8,2.3,13.3,6.8,18.3c3.3,3.8,2.8,9.6-1,12.9c-0.1,0.1-0.2,0.2-0.4,0.2
c-6.9,5.3-10.9,13.5-10.9,22.1c0.1,12.7,8.5,23.7,20.5,27.2c4.2,1.2,6.9,5,6.6,9.4c-1.1,16.4,10.3,31,26.5,34
c3.4,0.7,6,3.4,6.9,6.9c4.4,18.5,23,29.8,41.5,25.3c15.3-3.7,26-17.2,26.2-32.8c0-5,4.1-9.1,9.1-9.1c5,0,9.1,4.1,9.1,9.1
c0.2,18.9,15.9,34.1,34.8,33.8c15.6-0.2,29.2-11.1,32.8-26.2c0.7-3.4,3.4-6,6.9-6.9c16.2-2.8,27.7-17.5,26.5-34
c-0.2-4.3,2.5-8.2,6.6-9.4c12.2-3.6,20.5-14.6,20.5-27.3C394,290.9,390,282.7,383.1,277.4z M201.5,339c-5,0-9.1-4.1-9.1-9.1
c0-5-4.1-9.1-9.1-9.1c-5,0-9.1-4.1-9.1-9.1c0-5,4.1-9.1,9.1-9.1c15.1,0,27.4,12.3,27.4,27.4C210.7,335,206.5,339,201.5,339z
M201.5,256.6c-5,0-9.1,4.1-9.1,9.1c0,5-4.1,9.1-9.1,9.1c-5,0-9.1-4.1-9.1-9.1c0-15.1,12.3-27.4,27.4-27.4c5,0,9.1,4.1,9.1,9.1
C210.7,252.4,206.5,256.6,201.5,256.6z M219.8,220c-5,0-9.1-4.1-9.1-9.1c0-5-4.1-9.1-9.1-9.1c-5,0-9.1-4.1-9.1-9.1
c0-5,4.1-9.1,9.1-9.1c15.1,0,27.4,12.3,27.4,27.4C229.1,215.9,224.9,220,219.8,220z M265.6,329.9c0,5-4.1,9.1-9.1,9.1
c-5,0-9.1-4.1-9.1-9.1V174.1c0-5,4.1-9.1,9.1-9.1s9.1,4.1,9.1,9.1V329.9z M293.2,220c-5,0-9.1-4.1-9.1-9.1
c0-15.1,12.3-27.4,27.4-27.4c5,0,9.1,4.1,9.1,9.1c0,5-4.1,9.1-9.1,9.1s-9.1,4.1-9.1,9.1C302.3,215.9,298.2,220,293.2,220z
M329.8,320.7c-5,0-9.1,4.1-9.1,9.1c0,5-4.1,9.1-9.1,9.1s-9.1-4.1-9.1-9.1c0-15.1,12.3-27.4,27.4-27.4c5,0,9.1,4.1,9.1,9.1
S334.9,320.7,329.8,320.7z M329.8,274.9c-5,0-9.1-4.1-9.1-9.1c0-5-4.1-9.1-9.1-9.1s-9.1-4.1-9.1-9.1c0-5,4.1-9.1,9.1-9.1
c15.1,0,27.4,12.3,27.4,27.4C338.9,270.9,334.9,274.9,329.8,274.9z"/>
		<path fill="#FF375F" d="M425.8,134.7L279.1,51.8c-14-7.9-31.3-7.9-45.3,0l-146.7,83c-14.3,8.1-23.1,23.3-23.1,39.7V339c0,16.5,8.9,31.6,23.1,39.6
l146.7,82.9c14,7.9,31.3,7.9,45.3,0l146.7-82.9c14.3-8.1,23.1-23.3,23.1-39.6V174.4C448.9,157.9,440.1,142.8,425.8,134.7z
M385.1,342c-1.2,20.8-15.4,38.6-35.4,44.7c-9.8,27.4-40.1,41.8-67.5,32c-10.3-3.7-19.3-10.6-25.6-19.7c-16.6,24-49.6,30-73.6,13.4
c-9.1-6.3-16-15.3-19.7-25.6c-19.9-6-34.1-23.7-35.4-44.7c-16.5-7.6-27.2-24.2-27.2-42.4c0-11.3,4.1-22.3,11.6-30.6
c-9.8-17.1-7.8-38.6,5.2-53.5c-0.4-2.3-0.5-4.8-0.5-7.1c0-21.8,13.7-41.3,34.1-48.8c-5.7-19.1,5.2-39.1,24.1-44.8
c3.9-1.2,8-1.7,12.1-1.5c11.3-20.2,36.8-27.4,57.1-16.2c4.7,2.6,8.7,6,12.2,10.2c14.5-18,41-20.8,58.9-6.2
c4.2,3.3,7.6,7.5,10.2,12.2c20.1-0.7,37,15,37.6,35.2c0,0.2,0,0.6,0,0.9c0,3.4-0.5,6.9-1.5,10.3c20.4,7.5,34.1,27.1,34.1,48.8
c0,2.5-0.1,4.8-0.5,7.1c12.9,14.9,15,36.3,5.2,53.5c7.5,8.5,11.6,19.3,11.6,30.6C412.2,317.8,401.5,334.4,385.1,342L385.1,342z"/>
		<path fill="#FF375F" d="M494.8,338.8V174.4c0-33-17.8-63.2-46.4-79.5l-146.7-83C273.7-4,239.4-4,211.3,11.9L64.7,95
c-28.7,16.2-46.4,46.6-46.4,79.5v164.5c0,33,17.8,63.2,46.4,79.5l146.7,82.9c28.2,15.6,62.3,15.6,90.4,0l146.7-82.9
C477,402.2,494.8,371.8,494.8,338.8z M434.8,394.4l-146.7,82.9c-19.7,11.1-43.7,11.1-63.4,0L78.1,394.4
c-20.1-11.3-32.5-32.6-32.5-55.6V174.4c0-23,12.4-44.3,32.5-55.6l146.7-83c19.7-11.1,43.7-11.1,63.4,0l146.7,83
c20.1,11.3,32.5,32.6,32.5,55.6v164.5C467.2,361.9,454.8,383.1,434.8,394.4z"/>
	</g>
</svg>