<svg version="1.1" id="Layer_1" xmlns="http://www.w3.org/2000/svg"
	xmlns:xlink="http://www.w3.org/1999/xlink" x="0px" y="0px"
	viewBox="0 0 512 512" style="enable-background:new 0 0 512 512;" xml:space="preserve">
<g>
	<path fill="#FF375F" d="M383.1,277.4c-4.1-3.1-4.8-8.9-1.6-12.9c0.1-0.1,0.2-0.2,0.2-0.4c4.4-5,6.9-11.6,6.8-18.3c0-7.9-3.3-15.4-9.1-20.7
		c-2.5-2.2-3.6-5.8-2.7-9c0.6-2.6,1-5.3,1-7.9c-0.1-17.2-13-31.6-30.1-33.6c-5-0.6-8.6-5.2-8-10.2c0.2-1.7,0.9-3.3,2-4.7
		c2.5-3.1,3.7-6.9,3.7-10.7c-0.1-9.8-8.2-17.8-18.1-17.7c-1.6,0-3.1,0.2-4.6,0.6c-4.7,1.2-9.5-1.5-10.9-6c-3.2-9.6-12.2-16-22.3-16
		c-12.8-0.1-23.4,10.2-23.4,23.1c0,5-4.1,9.1-9.1,9.1s-9.1-4.1-9.1-9.1c-0.1-12.8-10.6-23.1-23.4-23.1c-10.1,0-19.1,6.5-22.3,16.1
		c-1.5,4.6-6.3,7.3-10.9,6c-9.6-2.6-19.4,3-22,12.5c-0.4,1.5-0.6,3.1-0.6,4.6c0,3.9,1.4,7.6,3.7,10.7c3.2,3.9,2.5,9.7-1.5,12.9
		c-1.4,1.1-3,1.7-4.7,2c-17.1,1.8-30.1,16.4-30.1,33.6c0,2.7,0.4,5.3,1,7.9c0.9,3.3-0.2,6.8-2.7,9c-5.8,5.3-9.1,12.8-9.1,20.7
		c0,6.8,2.3,13.3,6.8,18.3c3.3,3.8,2.8,9.6-1,12.9c-0.1,0.1-0.2,0.2-0.4,0.2c-6.9,5.3-10.9,13.5-10.9,22.1
		c0.1,12.7,8.5,23.7,20.5,27.2c4.2,1.2,6.9,5,6.6,9.4c-1.1,16.4,10.3,31,26.5,34c3.4,0.7,6,3.4,6.9,6.9c4.4,18.5,23,29.8,41.5,25.3
		c15.3-3.7,26-17.2,26.2-32.8c0-5,4.1-9.1,9.1-9.1c5,0,9.1,4.1,9.1,9.1c0.2,18.9,15.9,34.1,34.8,33.8c15.6-0.2,29.2-11.1,32.8-26.2
		c0.7-3.4,3.4-6,6.9-6.9c16.2-2.8,27.7-17.5,26.5-34c-0.2-4.3,2.5-8.2,6.6-9.4c12.2-3.6,20.5-14.6,20.5-27.3
		C394,290.9,390,282.7,383.1,277.4z M201.5,339c-5,0-9.1-4.1-9.1-9.1s-4.1-9.1-9.1-9.1s-9.1-4.1-9.1-9.1s4.1-9.1,9.1-9.1
		c15.1,0,27.4,12.3,27.4,27.4C210.7,335,206.5,339,201.5,339z M201.5,256.6c-5,0-9.1,4.1-9.1,9.1s-4.1,9.1-9.1,9.1s-9.1-4.1-9.1-9.1
		c0-15.1,12.3-27.4,27.4-27.4c5,0,9.1,4.1,9.1,9.1C210.7,252.4,206.5,256.6,201.5,256.6z M219.8,220c-5,0-9.1-4.1-9.1-9.1
		s-4.1-9.1-9.1-9.1s-9.1-4.1-9.1-9.1s4.1-9.1,9.1-9.1c15.1,0,27.4,12.3,27.4,27.4C229.1,215.9,224.9,220,219.8,220z M265.6,329.9
		c0,5-4.1,9.1-9.1,9.1s-9.1-4.1-9.1-9.1V174.1c0-5,4.1-9.1,9.1-9.1s9.1,4.1,9.1,9.1V329.9z M293.2,220c-5,0-9.1-4.1-9.1-9.1
		c0-15.1,12.3-27.4,27.4-27.4c5,0,9.1,4.1,9.1,9.1s-4.1,9.1-9.1,9.1s-9.1,4.1-9.1,9.1C302.3,215.9,298.2,220,293.2,220z
		 M329.8,320.7c-5,0-9.1,4.1-9.1,9.1s-4.1,9.1-9.1,9.1s-9.1-4.1-9.1-9.1c0-15.1,12.3-27.4,27.4-27.4c5,0,9.1,4.1,9.1,9.1
		S334.9,320.7,329.8,320.7z M329.8,274.9c-5,0-9.1-4.1-9.1-9.1s-4.1-9.1-9.1-9.1s-9.1-4.1-9.1-9.1s4.1-9.1,9.1-9.1
		c15.1,0,27.4,12.3,27.4,27.4C338.9,270.9,334.9,274.9,329.8,274.9z"/>
	<path fill="#FF375F" d="M425.8,134.7L279.1,51.8c-14-7.9-31.3-7.9-45.3,0l-146.7,83C72.8,142.9,64,158.1,64,174.5V339c0,16.5,8.9,31.6,23.1,39.6
		l146.7,82.9c14,7.9,31.3,7.9,45.3,0l146.7-82.9c14.3-8.1,23.1-23.3,23.1-39.6V174.4C448.9,157.9,440.1,142.8,425.8,134.7z
		 M385.1,342c-1.2,20.8-15.4,38.6-35.4,44.7c-9.8,27.4-40.1,41.8-67.5,32c-10.3-3.7-19.3-10.6-25.6-19.7C240,423,207,429,183,412.4
		c-9.1-6.3-16-15.3-19.7-25.6c-19.9-6-34.1-23.7-35.4-44.7c-16.5-7.6-27.2-24.2-27.2-42.4c0-11.3,4.1-22.3,11.6-30.6
		c-9.8-17.1-7.8-38.6,5.2-53.5c-0.4-2.3-0.5-4.8-0.5-7.1c0-21.8,13.7-41.3,34.1-48.8c-5.7-19.1,5.2-39.1,24.1-44.8
		c3.9-1.2,8-1.7,12.1-1.5c11.3-20.2,36.8-27.4,57.1-16.2c4.7,2.6,8.7,6,12.2,10.2c14.5-18,41-20.8,58.9-6.2
		c4.2,3.3,7.6,7.5,10.2,12.2c20.1-0.7,37,15,37.6,35.2c0,0.2,0,0.6,0,0.9c0,3.4-0.5,6.9-1.5,10.3c20.4,7.5,34.1,27.1,34.1,48.8
		c0,2.5-0.1,4.8-0.5,7.1c12.9,14.9,15,36.3,5.2,53.5c7.5,8.5,11.6,19.3,11.6,30.6C412.2,317.8,401.5,334.4,385.1,342L385.1,342z"/>
	<path fill="#FF375F" d="M494.8,338.8V174.4c0-33-17.8-63.2-46.4-79.5l-146.7-83c-28-15.9-62.3-15.9-90.4,0L64.7,95c-28.7,16.2-46.4,46.6-46.4,79.5
		V339c0,33,17.8,63.2,46.4,79.5l146.7,82.9c28.2,15.6,62.3,15.6,90.4,0l146.7-82.9C477,402.2,494.8,371.8,494.8,338.8z M434.8,394.4
		l-146.7,82.9c-19.7,11.1-43.7,11.1-63.4,0L78.1,394.4c-20.1-11.3-32.5-32.6-32.5-55.6V174.4c0-23,12.4-44.3,32.5-55.6l146.7-83
		c19.7-11.1,43.7-11.1,63.4,0l146.7,83c20.1,11.3,32.5,32.6,32.5,55.6v164.5C467.2,361.9,454.8,383.1,434.8,394.4z"/>
</g>
</svg>